<svg version="1.1" viewBox="0.0 0.0 280.71128608923885 100.0" fill="none" stroke="none" stroke-linecap="square" stroke-miterlimit="10" xmlns:xlink="http://www.w3.org/1999/xlink" xmlns="http://www.w3.org/2000/svg"><clipPath id="p.0"><path d="m0 0l280.71127 0l0 100.0l-280.71127 0l0 -100.0z" clip-rule="nonzero"/></clipPath><g clip-path="url(#p.0)"><path fill="#000000" fill-opacity="0.0" d="m0 0l280.71127 0l0 100.0l-280.71127 0z" fill-rule="evenodd"/><path fill="#000000" fill-opacity="0.0" d="m34.41995 32.567566l210.58267 -0.661417" fill-rule="evenodd"/><path stroke="#000000" stroke-width="1.0" stroke-linejoin="round" stroke-linecap="butt" d="m40.419918 32.54872l198.58272 -0.6237297" fill-rule="evenodd"/><path fill="#000000" stroke="#000000" stroke-width="1.0" stroke-linecap="butt" d="m40.41473 30.896996l-4.5328865 1.6659775l4.5432625 1.6374702z" fill-rule="evenodd"/><path fill="#000000" stroke="#000000" stroke-width="1.0" stroke-linecap="butt" d="m239.00784 33.576717l4.5328827 -1.6659775l-4.5432587 -1.6374722z" fill-rule="evenodd"/><path fill="#000000" fill-opacity="0.0" d="m142.97638 20.142368l0 24.188976" fill-rule="evenodd"/><path stroke="#000000" stroke-width="1.0" stroke-linejoin="round" stroke-linecap="butt" d="m142.97638 20.142368l0 24.188976" fill-rule="evenodd"/><path fill="#000000" fill-opacity="0.0" d="m127.93107 -5.2073493l30.078743 0l0 30.708662l-30.078743 0z" fill-rule="evenodd"/><path fill="#000000" d="m139.81107 10.243857q0 -1.6875 0.34375 -2.7187505q0.359375 -1.03125 1.046875 -1.59375q0.6875 -0.5625 1.71875 -0.5625q0.78125 0 1.359375 0.3125q0.578125 0.296875 0.953125 0.890625q0.375 0.578125 0.59375 1.421875q0.21875 0.8281255 0.21875 2.2500005q0 1.671875 -0.359375 2.703125q-0.34375 1.03125 -1.03125 1.59375q-0.671875 0.5625 -1.734375 0.5625q-1.375 0 -2.15625 -0.984375q-0.953125 -1.1875 -0.953125 -3.875zm1.203125 0q0 2.34375 0.546875 3.125q0.5625 0.78125 1.359375 0.78125q0.8125 0 1.359375 -0.78125q0.5625 -0.78125 0.5625 -3.125q0 -2.3593755 -0.5625 -3.1250005q-0.546875 -0.78125 -1.359375 -0.78125q-0.8125 0 -1.296875 0.6875q-0.609375 0.875 -0.609375 3.2187505z" fill-rule="nonzero"/><path fill="#000000" fill-opacity="0.0" d="m239.93205 16.176847l42.99214 0l0 30.708662l-42.99214 0z" fill-rule="evenodd"/><path fill="#000000" d="m256.12943 34.7843l0 -2.609375l-2.6093903 0l0 -1.0937481l2.6093903 0l0 -2.59375l1.09375 0l0 2.59375l2.609375 0l0 1.0937481l-2.609375 0l0 2.609375l-1.09375 0zm8.924042 -3.734373q0.6875 -0.859375 1.0625 -1.140625q0.53125 -0.375 1.109375 -0.375q0.671875 0 1.265625 0.5q0.609375 0.484375 0.609375 1.59375q0 0.7656231 -0.234375 1.2031231q-0.21875 0.4375 -0.6875 0.703125q-0.46875 0.265625 -0.953125 0.265625q-0.578125 0 -1.109375 -0.359375q-0.375 -0.28125 -1.0625 -1.140625q-0.890625 1.109375 -1.875 1.109375q-0.65625 0 -1.140625 -0.5q-0.46875 -0.5 -0.46875 -1.2343731q0 -0.734375 0.46875 -1.234375q0.484375 -0.5 1.140625 -0.5q0.984375 0 1.875 1.109375zm0.453125 0.609375q0.5625 0.8906231 1.03125 1.2031231q0.296875 0.21875 0.671875 0.21875q0.484375 0 0.8125 -0.359375q0.34375 -0.359375 0.34375 -1.0312481q0 -0.6875 -0.34375 -1.046875q-0.328125 -0.375 -0.84375 -0.375q-0.3125 0 -0.59375 0.1875q-0.375 0.25 -1.078125 1.203125zm-0.90625 0.015625q-0.515625 -0.65625 -0.828125 -0.84375q-0.3125 -0.1875 -0.59375 -0.1875q-0.390625 0 -0.640625 0.28125q-0.25 0.265625 -0.25 0.734375q0 0.4531231 0.265625 0.7343731q0.265625 0.28125 0.625 0.28125q0.671875 0 1.421875 -0.9999981z" fill-rule="nonzero"/><path fill="#000000" fill-opacity="0.0" d="m-8.067945 16.176847l42.992126 0l0 30.708662l-42.992126 0z" fill-rule="evenodd"/><path fill="#000000" d="m6.880061 33.4718l0 -1.1875l3.59375 0l0 1.1875l-3.59375 0zm8.50087 -2.421873q0.68750095 -0.859375 1.062501 -1.140625q0.53125 -0.375 1.109375 -0.375q0.671875 0 1.265625 0.5q0.609375 0.484375 0.609375 1.59375q0 0.7656231 -0.234375 1.2031231q-0.21875 0.4375 -0.6875 0.703125q-0.46875 0.265625 -0.953125 0.265625q-0.578125 0 -1.109375 -0.359375q-0.375 -0.28125 -1.062501 -1.140625q-0.890625 1.109375 -1.875 1.109375q-0.65625 0 -1.140625 -0.5q-0.46875 -0.5 -0.46875 -1.2343731q0 -0.734375 0.46875 -1.234375q0.484375 -0.5 1.140625 -0.5q0.984375 0 1.875 1.109375zm0.453125 0.609375q0.56250095 0.8906231 1.031251 1.2031231q0.296875 0.21875 0.671875 0.21875q0.484375 0 0.8125 -0.359375q0.34375 -0.359375 0.34375 -1.0312481q0 -0.6875 -0.34375 -1.046875q-0.328125 -0.375 -0.84375 -0.375q-0.3125 0 -0.59375 0.1875q-0.375 0.25 -1.078126 1.203125zm-0.90625 0.015625q-0.515625 -0.65625 -0.828125 -0.84375q-0.3125 -0.1875 -0.59375 -0.1875q-0.390625 0 -0.640625 0.28125q-0.25 0.265625 -0.25 0.734375q0 0.4531231 0.265625 0.7343731q0.265625 0.28125 0.625 0.28125q0.671875 0 1.421875 -0.9999981z" fill-rule="nonzero"/></g></svg>